<svg xmlns="http://www.w3.org/2000/svg" width="20" height="20" viewBox="0 0 533.5 544.3">
  <path fill="white" d="M533.5 278.4c0-17.7-1.6-35-4.7-51.6H272v97.8h146.9c-6.3 33.5-25.1 61.9-53.5 80.9v67.1h86.4c50.6-46.7 81.7-115.6 81.7-194.2z"/>
  <path fill="white" d="M272 544.3c72.6 0 133.5-24.2 178-65.6l-86.4-67.1c-23.9 16.1-54.5 25.6-91.6 25.6-70.5 0-130.2-47.6-151.6-111.5H31.5v69.9c44.5 88.1 136.1 148.7 240.5 148.7z"/>
  <path fill="white" d="M120.4 325.7c-10.4-30.7-10.4-63.9 0-94.6V161.2H31.5c-40.7 79.5-40.7 174.4 0 253.9l88.9-69.4z"/>
  <path fill="white" d="M272 107.7c39.6-.6 77.4 14.3 106.3 41.7l79.4-79.4C410.5 24.3 342.6-2 272 0 167.6 0 76 60.6 31.5 148.7l88.9 69.9c21.5-63.9 81.2-111.5 151.6-111.5z"/>
</svg>
